<?xml version="1.0" standalone="no"?><!DOCTYPE svg PUBLIC "-//W3C//DTD SVG 1.1//EN" "http://www.w3.org/Graphics/SVG/1.1/DTD/svg11.dtd"><svg t="1665979968554" class="icon" viewBox="0 0 1024 1024" version="1.1" xmlns="http://www.w3.org/2000/svg" p-id="4606" xmlns:xlink="http://www.w3.org/1999/xlink" width="200" height="200"><path d="M0 0m102.4 0l819.2 0q102.4 0 102.4 102.4l0 819.2q0 102.4-102.4 102.4l-819.2 0q-102.4 0-102.4-102.4l0-819.2q0-102.4 102.4-102.4Z" fill="#FEBA4F" p-id="4607"></path><path d="M760.189 539.08H552.96v214.547c0 34.454 23.73 61.932 56.908 61.932h150.29c33.178 0 59.042-27.478 59.042-61.932V597.524c0-34.422-25.864-58.445-59.011-58.445zM215.04 597.491v156.136c0 34.747 23.758 61.932 56.975 61.932h150.499c33.185 0 58.766-27.478 58.766-61.932V539.079H271.984c-32.84 0-56.944 24.023-56.944 58.412zM422.77 201.16H272.008c-32.899 0-56.968 24.316-56.968 58.77v156.103c0 34.421 23.755 61.606 56.968 61.606H481.28V259.93c0.28-34.453-25.328-58.77-58.541-58.77h0.031z" fill="#FFFFFF" p-id="4608"></path><path d="M735.44 204.8c47.23 0 83.76 33.419 83.76 82.398v108.234c0 49.013-36.53 96.088-83.476 96.088H542.72V287.198c0-48.98 41.406-82.398 88.667-82.398z m-6.212 61.44H627.32c-11.41 0-23.16 3.222-23.16 15.147V419.84h125.068c11.41 0 18.292-17.373 18.292-29.298V281.387c0-12.257-7.193-15.147-18.292-15.147z" fill="#FFE4B9" p-id="4609"></path></svg>