<?xml version="1.0" standalone="no"?><!DOCTYPE svg PUBLIC "-//W3C//DTD SVG 1.1//EN" "http://www.w3.org/Graphics/SVG/1.1/DTD/svg11.dtd"><svg t="1665981936192" class="icon" viewBox="0 0 1024 1024" version="1.1" xmlns="http://www.w3.org/2000/svg" p-id="11024" xmlns:xlink="http://www.w3.org/1999/xlink" width="200" height="200"><path d="M513.28 510.72m-414.72 0a414.72 414.72 0 1 0 829.44 0 414.72 414.72 0 1 0-829.44 0Z" fill="#EB4446" opacity=".4" p-id="11025"></path><path d="M673.3824 350.6176c-4.1472-4.1472-10.24-5.5296-15.7696-3.6864L434.2784 422.0928c-4.5568 1.536-8.1408 5.12-9.6768 9.6768l-75.2128 223.3344c-1.8432 5.5296-0.4096 11.6224 3.6864 15.7696 2.9184 2.9184 6.8608 4.5056 10.8544 4.5056 1.6384 0 3.2768-0.256 4.9152-0.8192l223.3344-75.2128c4.5568-1.536 8.1408-5.12 9.6768-9.6768l75.2128-223.3344c1.8944-5.4784 0.4608-11.6224-3.6864-15.7184z" fill="#EB4446" p-id="11026"></path></svg>