<?xml version="1.0" standalone="no"?><!DOCTYPE svg PUBLIC "-//W3C//DTD SVG 1.1//EN" "http://www.w3.org/Graphics/SVG/1.1/DTD/svg11.dtd"><svg t="1665927820644" class="icon" viewBox="0 0 1024 1024" version="1.1" xmlns="http://www.w3.org/2000/svg" p-id="10902" xmlns:xlink="http://www.w3.org/1999/xlink" width="200" height="200"><path d="M511.994277 511.994277m-511.994277 0a511.994277 511.994277 0 1 0 1023.988554 0 511.994277 511.994277 0 1 0-1023.988554 0Z" fill="#322657" p-id="10903"></path><path d="M315.496887 537.861245h44.637688v-44.637688c0-8.927538 5.951692-14.879229 14.879229-14.879229s14.879229 5.951692 14.879229 14.879229v44.637688h44.637688c8.927538 0 14.879229 5.951692 14.879229 14.879229h66.235461V361.862854H364.232086a193.109504 193.109504 0 0 0-193.42998 190.87762h129.804106c0-8.927538 5.951692-14.879229 14.890675-14.879229z" fill="#7B49B6" p-id="10904"></path><path d="M431.15428 622.890317h84.594141v-70.149843h-66.235461c0 8.938983-5.951692 14.879229-14.879229 14.879229h-44.637688v44.637688c0 8.938983-5.951692 14.879229-14.879229 14.879229s-14.879229-5.951692-14.879229-14.879229v-44.637688h-44.637688c-8.938983 0-14.879229-5.951692-14.879229-14.879229H170.79066c0 0.892754-0.068673 1.774062-0.068673 2.666816a193.246851 193.246851 0 0 0 193.544435 193.53299h66.887858V622.890317z" fill="#F8C642" p-id="10905"></path><path d="M515.714085 457.398952h313.253557a193.075167 193.075167 0 0 0-166.979289-95.47887h-114.455609c8.343814-43.493132-6.089038-98.214358-18.97674-146.938111-3.662579-13.883465-7.130584-26.988633-9.843183-39.017917-11.056412-49.032783-5.081829-82.831524 9.019103-109.018968l-19.617692-10.735936c-16.172578 29.941587-23.829658 69.119742-11.296769 124.756614 2.804162 12.429879 6.31795 25.729621 10.037757 39.807661 12.727464 48.16292 27.034415 102.506444 17.683392 141.203885h-8.858864v95.421642z" fill="#FC3A64" p-id="10906"></path><path d="M829.036315 457.398952h-198.008204v98.065566H855.55568a193.075167 193.075167 0 0 0-26.519365-98.065566z" fill="#F8C642" p-id="10907"></path><path d="M631.028111 555.40729v-98.008338H515.748421v165.491365h327.777974a192.399879 192.399879 0 0 0 7.393833-25.248907 195.87933 195.87933 0 0 0 4.578224-42.23412z" fill="#FFFFFF" p-id="10908"></path><path d="M516.309254 622.890317h-85.18931v126.049963h230.868409a193.349861 193.349861 0 0 0 181.503706-126.049963H516.309254z" fill="#7B49B6" p-id="10909"></path></svg>