<?xml version="1.0" standalone="no"?><!DOCTYPE svg PUBLIC "-//W3C//DTD SVG 1.1//EN" "http://www.w3.org/Graphics/SVG/1.1/DTD/svg11.dtd"><svg t="1665817037665" class="icon" viewBox="0 0 1024 1024" version="1.1" xmlns="http://www.w3.org/2000/svg" p-id="3642" xmlns:xlink="http://www.w3.org/1999/xlink" width="200" height="200"><path d="M626.688 702.122667h-229.717333c-41.642667 0-75.093333-33.792-75.093334-75.093334v-229.717333c0-41.642667 33.792-75.093333 75.093334-75.093333h229.717333c41.642667 0 75.093333 33.792 75.093333 75.093333v229.717333c0.341333 41.301333-33.450667 75.093333-75.093333 75.093334zM692.224 143.018667H624.64c-21.504 0-38.912 17.408-38.912 38.912 0 21.504 17.408 38.912 38.912 38.912h67.584c61.098667 0 110.592 49.493333 110.592 110.592V399.36c0 21.504 17.408 38.912 38.912 38.912 21.504 0 38.912-17.408 38.912-38.912V331.776c0.341333-104.106667-84.309333-188.757333-188.416-188.757333zM143.018667 331.776V399.36c0 21.504 17.408 38.912 38.912 38.912 21.504 0 38.912-17.408 38.912-38.912V331.776c0-61.098667 49.493333-110.592 110.592-110.592H399.36c21.504 0 38.912-17.408 38.912-38.912 0-21.504-17.408-38.912-38.912-38.912H331.776c-104.106667-0.341333-188.757333 84.309333-188.757333 188.416zM803.157333 624.64v67.584c0 61.098667-49.493333 110.592-110.592 110.592H624.64c-21.504 0-38.912 17.408-38.912 38.912 0 21.504 17.408 38.912 38.912 38.912h67.584c104.106667 0 188.757333-84.650667 188.757333-188.757333V624.64c0-21.504-17.408-38.912-38.912-38.912-21.504 0-38.912 17.408-38.912 38.912zM220.842667 692.224V624.64c0-21.504-17.408-38.912-38.912-38.912-21.504 0-38.912 17.408-38.912 38.912v67.584c0 104.106667 84.650667 188.757333 188.757333 188.757333H399.36c21.504 0 38.912-17.408 38.912-38.912 0-21.504-17.408-38.912-38.912-38.912H331.776c-61.098667 0-110.933333-49.834667-110.933333-110.933333z" fill="#06CC76" opacity=".6" p-id="3643"></path><path d="M247.466667 512c0-21.504 17.408-38.912 38.912-38.912h451.242666c21.504 0 38.912 17.408 38.912 38.912 0 21.504-17.408 38.912-38.912 38.912H286.378667c-21.504 0-38.912-17.408-38.912-38.912z" fill="#06CC76" opacity=".6" p-id="3644"></path></svg>